<?xml version="1.0" encoding="UTF-8" standalone="no"?>
<!DOCTYPE svg PUBLIC "-//W3C//DTD SVG 1.1//EN" "http://www.w3.org/Graphics/SVG/1.1/DTD/svg11.dtd">
<svg width="100%" height="100%" viewBox="0 0 24 24" version="1.1" xmlns="http://www.w3.org/2000/svg" xmlns:xlink="http://www.w3.org/1999/xlink" xml:space="preserve" xmlns:serif="http://www.serif.com/" style="fill-rule:evenodd;clip-rule:evenodd;stroke-linejoin:round;stroke-miterlimit:2;">
    <g transform="matrix(1.2015,0,0,1.2,-2.403,-2.4)">
        <path d="M21.4,14.25L14.25,21.4C14.05,21.6 13.825,21.75 13.575,21.85C13.325,21.95 13.075,22 12.825,22C12.575,22 12.325,21.95 12.075,21.85C11.825,21.75 11.6,21.6 11.4,21.4L2.575,12.575C2.392,12.392 2.25,12.179 2.15,11.938C2.05,11.696 2,11.442 2,11.175L2,4C2,3.45 2.196,2.979 2.588,2.587C2.979,2.196 3.45,2 4,2L11.175,2C11.442,2 11.7,2.054 11.95,2.162C12.2,2.271 12.417,2.417 12.6,2.6L21.4,11.425C21.6,11.625 21.746,11.85 21.838,12.1C21.929,12.35 21.975,12.6 21.975,12.85C21.975,13.1 21.929,13.346 21.838,13.587C21.746,13.829 21.6,14.05 21.4,14.25ZM12.825,20L19.975,12.85L11.15,4L4,4L4,11.15L12.825,20ZM6.5,8C6.917,8 7.271,7.854 7.563,7.563C7.854,7.271 8,6.917 8,6.5C8,6.083 7.854,5.729 7.563,5.438C7.271,5.146 6.917,5 6.5,5C6.083,5 5.729,5.146 5.438,5.438C5.146,5.729 5,6.083 5,6.5C5,6.917 5.146,7.271 5.438,7.563C5.729,7.854 6.083,8 6.5,8Z" style="fill-rule:nonzero;"/>
    </g>
</svg>
